<?xml version="1.0" encoding="UTF-8"?>
<svg version="1.1" xmlns="http://www.w3.org/2000/svg" width="500" height="500">
<path d="M0 0 C165 0 330 0 500 0 C500 165 500 330 500 500 C335 500 170 500 0 500 C0 335 0 170 0 0 Z " fill="#000000" transform="translate(0,0)"/>
<path d="M0 0 C12.87 0 25.74 0 39 0 C39 4.95 39 9.9 39 15 C31.41 15 23.82 15 16 15 C16 20.94 16 26.88 16 33 C26.56 33 37.12 33 48 33 C48 37.62 48 42.24 48 47 C37.44 47 26.88 47 16 47 C16 52.94 16 58.88 16 65 C23.59 65 31.18 65 39 65 C39 69.95 39 74.9 39 80 C26.13 80 13.26 80 0 80 C0 53.6 0 27.2 0 0 Z " fill="#F7F7F7" transform="translate(192,219)"/>
<path d="M0 0 C4.95 0 9.9 0 15 0 C15.06800516 7.42407057 15.1229475 14.84796852 15.15543652 22.27228546 C15.17103628 25.72037914 15.19216893 29.16824712 15.22631836 32.61621094 C15.26540455 36.58786235 15.27975629 40.55942505 15.29296875 44.53125 C15.30845261 45.75863892 15.32393646 46.98602783 15.33988953 48.25061035 C15.34175621 57.81166696 13.75079313 65.82842572 7 73 C4.79501268 74.68204411 2.5187164 75.85464686 0 77 C-1.155 77.5775 -2.31 78.155 -3.5 78.75 C-12.14042112 81.79263857 -22.63356883 81.17687757 -30.85546875 77.25 C-38.14291344 73.00230911 -42.04476848 67.93822288 -45 60 C-45.60118799 56.36432651 -45.59001604 52.85663097 -45.48828125 49.1796875 C-45.48120651 48.19501495 -45.47413177 47.21034241 -45.46684265 46.1958313 C-45.43912378 43.08807457 -45.37642921 39.9822009 -45.3125 36.875 C-45.28738799 34.75263041 -45.26457995 32.63023223 -45.24414062 30.5078125 C-45.18937113 25.33782951 -45.10325757 20.16923263 -45 15 C-40.05 15 -35.1 15 -30 15 C-29.98598145 16.76259155 -29.98598145 16.76259155 -29.97167969 18.56079102 C-29.93164665 22.94267949 -29.86585126 27.32387568 -29.79248047 31.70532227 C-29.76434784 33.59748404 -29.74309512 35.48976164 -29.72900391 37.38208008 C-29.70746714 40.1107887 -29.66076331 42.83811591 -29.609375 45.56640625 C-29.60814636 46.40522842 -29.60691772 47.2440506 -29.60565186 48.10829163 C-29.46409429 53.85355521 -28.29183878 57.26222056 -25 62 C-20.86162795 65.01047906 -15.89809272 64.48227374 -11 64 C-7.27926551 63.11476949 -4.66507199 61.90168268 -2.33561707 58.7434845 C-0.84241917 55.67631399 -0.60594198 53.68645956 -0.56762695 50.29174805 C-0.54783279 49.17096359 -0.52803864 48.05017914 -0.50764465 46.89543152 C-0.50125473 45.6963063 -0.49486481 44.49718109 -0.48828125 43.26171875 C-0.47033005 42.02581497 -0.45237885 40.78991119 -0.43388367 39.51655579 C-0.38894759 36.24343758 -0.35661884 32.97051636 -0.33044434 29.69720459 C-0.30057573 26.35202279 -0.25381932 23.0071241 -0.20898438 19.66210938 C-0.12402237 13.10816036 -0.05722439 6.55424752 0 0 Z " fill="#FAFAFA" transform="translate(288,219)"/>
<path d="M0 0 C4.11812372 3.03711624 6.81645159 7.02827917 8.25 11.90234375 C8.25 14.21234375 8.25 16.52234375 8.25 18.90234375 C3.3 18.90234375 -1.65 18.90234375 -6.75 18.90234375 C-7.41 16.92234375 -8.07 14.94234375 -8.75 12.90234375 C-11.24040942 10.41193433 -12.18154357 10.57843361 -15.625 10.52734375 C-18.97256322 10.60958157 -20.45562805 10.72712235 -23.375 12.46484375 C-25.31777996 15.90886276 -25.36493641 18.00774649 -24.75 21.90234375 C-23.11305491 24.96095202 -23.11305491 24.96095202 -19.75 26.90234375 C-16.7613764 27.57124659 -13.78408684 27.98571245 -10.75 28.3984375 C-3.22714349 29.66204231 1.07065893 33.26581369 5.90234375 39 C9.70458443 44.3672209 8.73596835 51.64723689 8.25 57.90234375 C6.62415608 64.14127492 2.57396241 68.43582867 -2.75 71.90234375 C-7.75624043 74.46840509 -10.95203056 74.90234375 -16.75 74.90234375 C-16.75 69.95234375 -16.75 65.00234375 -16.75 59.90234375 C-14.44 59.24234375 -12.13 58.58234375 -9.75 57.90234375 C-7.34653621 55.49887996 -7.42916253 54.7633418 -7.375 51.46484375 C-7.33246094 50.29115234 -7.33246094 50.29115234 -7.2890625 49.09375 C-7.57485506 46.80816112 -7.57485506 46.80816112 -9.28125 45.23828125 C-13.19023652 43.12297525 -17.41809147 42.42137492 -21.73046875 41.52929688 C-29.3843476 39.80681378 -34.10752083 36.09231597 -38.75 29.90234375 C-42.13539045 24.52135471 -41.3869906 17.99733806 -40.75 11.90234375 C-38.57661698 4.8969743 -33.9588857 0.55099172 -27.75 -3.09765625 C-18.28759012 -7.7237233 -8.49361545 -5.32746862 0 0 Z " fill="#F7F7F7" transform="translate(346.75,224.09765625)"/>
<path d="M0 0 C15.84 0 31.68 0 48 0 C47.27465711 3.62671443 46.58119593 6.35437374 45.23413086 9.69848633 C44.87383286 10.59904251 44.51353485 11.49959869 44.14231873 12.42744446 C43.75375198 13.3859581 43.36518524 14.34447174 42.96484375 15.33203125 C42.56672989 16.32377853 42.16861603 17.31552582 41.75843811 18.33732605 C40.48883659 21.49736186 39.21325369 24.65494357 37.9375 27.8125 C37.0744741 29.95752313 36.21183927 32.10270365 35.34960938 34.24804688 C33.23760269 39.50053346 31.1202292 44.75082744 29 50 C23.39 50 17.78 50 12 50 C14.3934712 42.50151713 17.23663411 35.2325793 20.1875 27.9375 C20.65091797 26.78572266 21.11433594 25.63394531 21.59179688 24.44726562 C22.72549368 21.63055499 23.86241737 18.81514351 25 16 C16.75 15.67 8.5 15.34 0 15 C0 10.05 0 5.1 0 0 Z " fill="#FAFAFA" transform="translate(142,219)"/>
<path d="M0 0 C13.86 0 27.72 0 42 0 C42 4.95 42 9.9 42 15 C26.49 15 10.98 15 -5 15 C-4 8 -4 8 0 0 Z " fill="#FAFAFA" transform="translate(148,284)"/>
<path d="M0 0 C0.66 0 1.32 0 2 0 C2.33 2.64 2.66 5.28 3 8 C4.20628008 5.66785852 5.1654738 3.50357861 6 1 C6.66 2.98 7.32 4.96 8 7 C8.33 4.69 8.66 2.38 9 0 C9.66 0 10.32 0 11 0 C11 3.96 11 7.92 11 12 C11.99 12.33 12.98 12.66 14 13 C11.69 13 9.38 13 7 13 C7 12.34 7 11.68 7 11 C6.01 11 5.02 11 4 11 C4 11.66 4 12.32 4 13 C2.35 13 0.7 13 -1 13 C-1.33 13.66 -1.66 14.32 -2 15 C-2 14.34 -2 13.68 -2 13 C-3.32 13 -4.64 13 -6 13 C-6 9.04 -6 5.08 -6 1 C-4.35 1 -2.7 1 -1 1 C-0.67 0.67 -0.34 0.34 0 0 Z " fill="#D1D1D1" transform="translate(131,182)"/>
<path d="M0 0 C1.65 0 3.3 0 5 0 C5.33 4.29 5.66 8.58 6 13 C5.34 13 4.68 13 4 13 C3.67 12.34 3.34 11.68 3 11 C2.67 11.66 2.34 12.32 2 13 C0.68 13 -0.64 13 -2 13 C-2 12.34 -2 11.68 -2 11 C-2.99 11 -3.98 11 -5 11 C-5.33 11.66 -5.66 12.32 -6 13 C-5.67 9.04 -5.34 5.08 -5 1 C-4.01 1.33 -3.02 1.66 -2 2 C-1.3125 4.0625 -1.3125 4.0625 -1 6 C-0.67 4.02 -0.34 2.04 0 0 Z " fill="#A8A8A8" transform="translate(102,182)"/>
<path d="M0 0 C2.64 0.33 5.28 0.66 8 1 C7.67 4.96 7.34 8.92 7 13 C4.69 13 2.38 13 0 13 C0 8.71 0 4.42 0 0 Z " fill="#989898" transform="translate(186,182)"/>
<path d="M0 0 C2.31 0 4.62 0 7 0 C7 3.96 7 7.92 7 12 C7.66 12.33 8.32 12.66 9 13 C6.03 13 3.06 13 0 13 C0 8.71 0 4.42 0 0 Z " fill="#B8B8B8" transform="translate(162,182)"/>
<path d="M0 0 C-0.33 4.29 -0.66 8.58 -1 13 C-1.66 13 -2.32 13 -3 13 C-3 9.37 -3 5.74 -3 2 C-3.66 2 -4.32 2 -5 2 C-5 5.63 -5 9.26 -5 13 C-6.65 13 -8.3 13 -10 13 C-10 9.04 -10 5.08 -10 1 C-6.52674819 -0.1577506 -3.63932552 -0.06866652 0 0 Z " fill="#C3C3C3" transform="translate(161,182)"/>
<path d="M0 0 C1.65 0 3.3 0 5 0 C5.93385816 2.80157448 6.16354595 4.65447803 6.1875 7.5625 C6.20167969 8.34753906 6.21585938 9.13257813 6.23046875 9.94140625 C6 12 6 12 4 14 C4 13.34 4 12.68 4 12 C2.68 12 1.36 12 0 12 C0 8.04 0 4.08 0 0 Z " fill="#747474" transform="translate(125,183)"/>
<path d="M0 0 C2.31 0 4.62 0 7 0 C7 4.29 7 8.58 7 13 C6.34 13 5.68 13 5 13 C5 9.37 5 5.74 5 2 C4.01 2 3.02 2 2 2 C2 3.32 2 4.64 2 6 C2.66 6.33 3.32 6.66 4 7 C3.34 7 2.68 7 2 7 C2 8.98 2 10.96 2 13 C1.34 13 0.68 13 0 13 C0 8.71 0 4.42 0 0 Z " fill="#B6B6B6" transform="translate(116,182)"/>
<path d="M0 0 C2.31 0 4.62 0 7 0 C7 4.29 7 8.58 7 13 C6.34 13 5.68 13 5 13 C5 9.37 5 5.74 5 2 C4.34 2 3.68 2 3 2 C3 5.63 3 9.26 3 13 C2.34 13 1.68 13 1 13 C0.67 8.71 0.34 4.42 0 0 Z " fill="#C4C4C4" transform="translate(108,182)"/>
<path d="M0 0 C2.0625 0.4375 2.0625 0.4375 4 1 C4 2.32 4 3.64 4 5 C3.34 5 2.68 5 2 5 C2 5.66 2 6.32 2 7 C2.66 7 3.32 7 4 7 C4 8.98 4 10.96 4 13 C2.35 13 0.7 13 -1 13 C-1.02686553 11.02090602 -1.04633375 9.04171029 -1.0625 7.0625 C-1.07410156 5.96035156 -1.08570313 4.85820312 -1.09765625 3.72265625 C-1 1 -1 1 0 0 Z " fill="#D0D0D0" transform="translate(181,182)"/>
<path d="M0 0 C1.65 0 3.3 0 5 0 C5 0.66 5 1.32 5 2 C4.01 2 3.02 2 2 2 C2 3.32 2 4.64 2 6 C2.66 6.33 3.32 6.66 4 7 C3.34 7 2.68 7 2 7 C2 8.65 2 10.3 2 12 C2.99 12.33 3.98 12.66 5 13 C3.35 13 1.7 13 0 13 C0 8.71 0 4.42 0 0 Z " fill="#C3C3C3" transform="translate(204,182)"/>
<path d="M0 0 C0.66 0 1.32 0 2 0 C2 3.96 2 7.92 2 12 C2.99 12.33 3.98 12.66 5 13 C3.02 13 1.04 13 -1 13 C-0.67 8.71 -0.34 4.42 0 0 Z " fill="#B7B7B7" transform="translate(140,182)"/>
<path d="M0 0 C1.32 0.33 2.64 0.66 4 1 C3.34 1 2.68 1 2 1 C2 2.32 2 3.64 2 5 C2.66 5.33 3.32 5.66 4 6 C3.34 6 2.68 6 2 6 C2 7.65 2 9.3 2 11 C2.66 11.33 3.32 11.66 4 12 C2.68 12 1.36 12 0 12 C0 8.04 0 4.08 0 0 Z " fill="#D9D9D9" transform="translate(162,183)"/>
<path d="M0 0 C1.32 0.33 2.64 0.66 4 1 C3.34 1 2.68 1 2 1 C2 2.32 2 3.64 2 5 C2.66 5.33 3.32 5.66 4 6 C3.34 6 2.68 6 2 6 C2 7.65 2 9.3 2 11 C2.66 11.33 3.32 11.66 4 12 C2.68 12 1.36 12 0 12 C0 8.04 0 4.08 0 0 Z " fill="#D5D5D5" transform="translate(186,183)"/>
<path d="M0 0 C0.99 0 1.98 0 3 0 C3 3.3 3 6.6 3 10 C2.01 10 1.02 10 0 10 C0 6.7 0 3.4 0 0 Z " fill="#0D0D0D" transform="translate(164,184)"/>
<path d="M0 0 C0.66 0 1.32 0 2 0 C2 3.96 2 7.92 2 12 C1.34 12 0.68 12 0 12 C-0.92844389 7.66726186 -0.92844389 4.33273814 0 0 Z " fill="#C5C5C5" transform="translate(195,183)"/>
<path d="M0 0 C0.99 0 1.98 0 3 0 C3 2.97 3 5.94 3 9 C2.01 9 1.02 9 0 9 C0 6.03 0 3.06 0 0 Z " fill="#090909" transform="translate(188,184)"/>
<path d="M0 0 C0.33 0.99 0.66 1.98 1 3 C1.99 3 2.98 3 4 3 C4 4.98 4 6.96 4 9 C3.67 8.01 3.34 7.02 3 6 C2.34 6 1.68 6 1 6 C0.67 7.32 0.34 8.64 0 10 C0 6.7 0 3.4 0 0 Z " fill="#060606" transform="translate(200,184)"/>
<path d="M0 0 C0.99 0.33 1.98 0.66 3 1 C3.33 3.31 3.66 5.62 4 8 C3.01 8 2.02 8 1 8 C0.67 5.36 0.34 2.72 0 0 Z " fill="#A7A7A7" transform="translate(97,183)"/>
<path d="M0 0 C0.99 0 1.98 0 3 0 C3 1.98 3 3.96 3 6 C2.34 6 1.68 6 1 6 C1 7.65 1 9.3 1 11 C0.67 11 0.34 11 0 11 C0 7.37 0 3.74 0 0 Z " fill="#171717" transform="translate(118,184)"/>
<path d="M0 0 C0.33 1.32 0.66 2.64 1 4 C1.99 4 2.98 4 4 4 C3.67 5.32 3.34 6.64 3 8 C3 7.34 3 6.68 3 6 C2.01 6 1.02 6 0 6 C-0.33 6.66 -0.66 7.32 -1 8 C-1.125 2.25 -1.125 2.25 0 0 Z " fill="#D9D9D9" transform="translate(97,187)"/>
<path d="M0 0 C1.32 0.33 2.64 0.66 4 1 C4 2.32 4 3.64 4 5 C2.68 5.33 1.36 5.66 0 6 C0 4.02 0 2.04 0 0 Z " fill="#BEBEBE" transform="translate(181,182)"/>
</svg>
