<?xml version="1.0" encoding="UTF-8"?>
<svg version="1.1" xmlns="http://www.w3.org/2000/svg" width="500" height="500">
<path d="M0 0 C165 0 330 0 500 0 C500 165 500 330 500 500 C335 500 170 500 0 500 C0 335 0 170 0 0 Z " fill="#FEFEFE" transform="translate(0,0)"/>
<path d="M0 0 C2 3 2 3 2 7 C2.66 7 3.32 7 4 7 C4.66 9.97 5.32 12.94 6 16 C6.33 16 6.66 16 7 16 C7 18.64 7 21.28 7 24 C6.34 24 5.68 24 5 24 C5.10699219 24.88042969 5.21398437 25.76085937 5.32421875 26.66796875 C5.44410156 27.82941406 5.56398438 28.99085938 5.6875 30.1875 C5.81511719 31.33605469 5.94273437 32.48460937 6.07421875 33.66796875 C5.98873198 37.50587473 4.99019397 38.80008029 3 42 C2.487511 44.64466251 2.0904294 47.14794753 1.8125 49.8125 C1.73064453 50.50537109 1.64878906 51.19824219 1.56445312 51.91210938 C1.36575707 53.60686984 1.18140797 55.30330194 1 57 C1.33 57 1.66 57 2 57 C4.01912888 68.39052051 2.38343087 80.99480184 -3.625 91.0625 C-4.40875 92.031875 -5.1925 93.00125 -6 94 C-6.66 94 -7.32 94 -8 94 C-8.66 95.32 -9.32 96.64 -10 98 C-10.66 98 -11.32 98 -12 98 C-12 99.32 -12 100.64 -12 102 C-17.45052322 105.67317869 -22.33717694 107.46254309 -29 107 C-34.6285207 104.28997152 -38.03725256 100.32708291 -40.4140625 94.58203125 C-41.01347656 92.71611328 -41.01347656 92.71611328 -41.625 90.8125 C-42.02976563 89.58144531 -42.43453125 88.35039062 -42.8515625 87.08203125 C-45.68827905 77.35409926 -46.32072943 68.25916233 -46.25 58.125 C-46.24756287 57.44391174 -46.24512573 56.76282349 -46.24261475 56.06109619 C-46.19763607 45.32125808 -45.70362828 34.70886437 -44.26904297 24.05712891 C-44.00879587 22.06725406 -43.80225871 20.07058252 -43.59765625 18.07421875 C-43.03161195 13.22780138 -42.49978117 9.81782373 -39.9375 5.625 C-35.71974376 3.29177315 -32.5717316 4.07816848 -28 5 C-24.4123217 12.41488423 -23.43163749 18.64152664 -23.49609375 26.82421875 C-23.48667252 27.92868851 -23.47725128 29.03315826 -23.46754456 30.1710968 C-23.43908047 33.67675591 -23.43580768 37.18173528 -23.4375 40.6875 C-23.49286605 61.53740273 -23.49286605 61.53740273 -20 82 C-19.65621885 83.664543 -19.31901256 85.33053306 -19 87 C-11.92867773 81.07537864 -10.70336356 72.60596516 -9 63.875 C-8.83266357 63.03187256 -8.66532715 62.18874512 -8.49291992 61.32006836 C-6.65612617 51.73006228 -5.46212818 42.05572425 -4.32543945 32.36157227 C-4.10193004 30.73966184 -3.8153419 29.12558957 -3.47705078 27.52368164 C-2.98361263 24.91330796 -2.82636983 22.4587575 -2.75390625 19.8046875 C-2.72103516 18.84175781 -2.68816406 17.87882812 -2.65429688 16.88671875 C-2.59286455 14.8712157 -2.53560414 12.85558136 -2.48242188 10.83984375 C-2.44826172 9.87949219 -2.41410156 8.91914063 -2.37890625 7.9296875 C-2.34132202 6.61846924 -2.34132202 6.61846924 -2.30297852 5.28076172 C-2 3 -2 3 0 0 Z " fill="#060606" transform="translate(298,203)"/>
<path d="M0 0 C3.0838158 -0.40443486 5.03987511 -0.62945184 8 0 C10.9375 2.4375 10.9375 2.4375 13 5 C13.495 5.495 13.495 5.495 14 6 C14.17313958 12.9507318 11.81853755 18.04386591 8.3125 23.875 C7.39180756 25.46868096 6.47123399 27.06243059 5.55078125 28.65625 C5.10686035 29.41164062 4.66293945 30.16703125 4.20556641 30.9453125 C-0.81521384 39.50239767 -5.22132041 48.36331107 -9.57421875 57.27294922 C-10.19490234 58.53196045 -10.19490234 58.53196045 -10.828125 59.81640625 C-11.3835498 60.95251343 -11.3835498 60.95251343 -11.95019531 62.11157227 C-13 64 -13 64 -15 66 C-15.73203447 67.92990906 -16.45981956 69.86164656 -17.15625 71.8046875 C-17.95064289 73.87158012 -18.85601505 75.78598868 -19.875 77.75 C-22.59281655 83.01708633 -24.7688775 88.5136332 -27 94 C-27.66 94 -28.32 94 -29 94 C-29.33 95.32 -29.66 96.64 -30 98 C-28.98421875 97.98839844 -27.9684375 97.97679687 -26.921875 97.96484375 C-18.5559758 97.89961257 -10.3310573 98.11640301 -2 99 C-2 99.66 -2 100.32 -2 101 C-2.55429688 101.18175781 -3.10859375 101.36351562 -3.6796875 101.55078125 C-4.40414062 101.80214844 -5.12859375 102.05351562 -5.875 102.3125 C-6.59429687 102.55613281 -7.31359375 102.79976563 -8.0546875 103.05078125 C-10.33994905 103.96335547 -10.33994905 103.96335547 -12 107 C-14.94921875 107.51171875 -14.94921875 107.51171875 -18.6875 107.6875 C-19.3487085 107.71875977 -20.00991699 107.75001953 -20.69116211 107.78222656 C-22.79384602 107.87264321 -24.8963144 107.93761484 -27 108 C-27.68545898 108.02723145 -28.37091797 108.05446289 -29.07714844 108.08251953 C-41.83129307 108.56789746 -41.83129307 108.56789746 -48 105 C-48.60248519 97.28484237 -47.33256414 91.00568229 -44 84 C-43.01 83.01 -43.01 83.01 -42 82 C-41.42692349 80.22435361 -40.91724593 78.42810306 -40.4375 76.625 C-34.6633601 57.1989903 -24.4785346 38.28958208 -14 21 C-15.93552734 21.06960937 -15.93552734 21.06960937 -17.91015625 21.140625 C-19.62758088 21.17816434 -21.34503072 21.21456217 -23.0625 21.25 C-23.91005859 21.28351563 -24.75761719 21.31703125 -25.63085938 21.3515625 C-31.64713339 21.44447793 -35.03520245 20.42213997 -40 17 C-39.6875 15.125 -39.6875 15.125 -39 13 C-36.06976097 11.04650731 -34.85140567 10.63469056 -31.5 10.1484375 C-30.61723389 10.01928955 -29.73446777 9.8901416 -28.82495117 9.75708008 C-27.42660034 9.56795044 -27.42660034 9.56795044 -26 9.375 C-25.05552002 9.24311279 -24.11104004 9.11122559 -23.13793945 8.9753418 C-16.73709979 8.12325515 -10.46163654 7.59141877 -4 8 C-3.71125 7.236875 -3.4225 6.47375 -3.125 5.6875 C-2 3 -2 3 0 0 Z " fill="#050505" transform="translate(184,203)"/>
<path d="M0 0 C0.66 0.33 1.32 0.66 2 1 C6.64976558 1.16908238 11.00998572 0.88544175 15.625 0.3125 C20.26762782 -0.16532261 23.02890299 0.31682634 27 3 C26.67 4.32 26.34 5.64 26 7 C25.401875 6.79375 24.80375 6.5875 24.1875 6.375 C21.71549154 5.69328085 21.71549154 5.69328085 19 8 C17.61348166 8.72639775 16.21709975 9.43421324 14.8125 10.125 C14.09707031 10.47820312 13.38164062 10.83140625 12.64453125 11.1953125 C11.83048828 11.59363281 11.83048828 11.59363281 11 12 C12.32 12.33 13.64 12.66 15 13 C13.71086513 13.67154933 12.41859796 14.33708859 11.125 15 C10.40570313 15.37125 9.68640625 15.7425 8.9453125 16.125 C7 17 7 17 5 17 C3.68 26.57 2.36 36.14 1 46 C2.98 45.505 2.98 45.505 5 45 C7.24907152 44.93209325 9.50001605 44.91500016 11.75 44.9375 C13.50570312 44.95103516 13.50570312 44.95103516 15.296875 44.96484375 C16.18890625 44.97644531 17.0809375 44.98804688 18 45 C17.34 45.66 16.68 46.32 16 47 C16.30271961 48.34061543 16.63837971 49.67405895 17 51 C16 54 16 54 13.41796875 55.3515625 C11.81888672 55.98191406 11.81888672 55.98191406 10.1875 56.625 C9.12917969 57.05039062 8.07085937 57.47578125 6.98046875 57.9140625 C4 59 4 59 1.67578125 59.5234375 C1.12277344 59.68070312 0.56976563 59.83796875 0 60 C-1.48395424 62.96790849 -1.62133996 66.11566165 -2 69.375 C-2.08830078 70.11580811 -2.17660156 70.85661621 -2.26757812 71.61987305 C-3.04216291 78.5316078 -3.38128075 85.44709434 -3.5703125 92.39794922 C-3.61285156 93.60281982 -3.61285156 93.60281982 -3.65625 94.83203125 C-3.67494141 95.54077393 -3.69363281 96.2495166 -3.71289062 96.97973633 C-4.04327882 99.30453422 -4.85487889 100.96432437 -6 103 C-4.4221875 102.505 -4.4221875 102.505 -2.8125 102 C2.99182193 100.541104 9.05790439 100.42767351 15 101 C15.99 101.99 15.99 101.99 17 103 C15.02 103.495 15.02 103.495 13 104 C13.34444881 106.47266765 13.34444881 106.47266765 14 109 C14.99 109.495 14.99 109.495 16 110 C7.69955157 115.5491762 -4.14352123 117.28635401 -14 116 C-16.265625 115.171875 -16.265625 115.171875 -18 114 C-18.625 110.9375 -18.625 110.9375 -19 107 C-19.33 105.74574219 -19.66 104.49148438 -20 103.19921875 C-21.51313077 96.49518988 -21.39101296 89.71529966 -21.375 82.875 C-21.37578552 82.16245056 -21.37657104 81.44990112 -21.37738037 80.71575928 C-21.35307059 62.100157 -18.87200275 43.89192289 -15.44677734 25.60839844 C-14.99547971 22.97360941 -14.6598731 20.34735848 -14.359375 17.69140625 C-14.25753906 16.84255859 -14.15570313 15.99371094 -14.05078125 15.11914062 C-13.84728899 13.38945638 -13.66291 11.65743391 -13.49609375 9.92382812 C-12.91324605 5.34882483 -12.64032524 3.57491567 -9.09375 0.390625 C-5.46280151 -1.24146801 -3.77172927 -1.11437456 0 0 Z " fill="#060606" transform="translate(223,199)"/>
<path d="M0 0 C1.91595968 -0.08133791 3.83291932 -0.13934367 5.75 -0.1875 C7.35101563 -0.23970703 7.35101563 -0.23970703 8.984375 -0.29296875 C12.34615665 0.03362921 13.71393754 0.5308306 16 3 C16 4.32 16 5.64 16 7 C14.35 7.33 12.7 7.66 11 8 C13.03268602 10.16343011 13.03268602 10.16343011 16 12 C14.44539063 12.11214844 14.44539063 12.11214844 12.859375 12.2265625 C11.48944359 12.35792579 10.11965829 12.49081906 8.75 12.625 C8.06808594 12.67011719 7.38617188 12.71523437 6.68359375 12.76171875 C2.7610303 13.18063329 1.21202585 13.7643407 -1.453125 16.7265625 C-4.55207796 23.2844478 -3.88570893 30.3725917 -1.5 37.125 C0.61646999 41.81414023 3.61035702 45.50883381 6.90625 49.42578125 C14.35505559 58.58392095 19.60013995 67.73963372 19.5 79.6875 C19.49572998 80.46697998 19.49145996 81.24645996 19.48706055 82.04956055 C19.2373214 90.65276539 16.94087194 98.20782303 11.625 105.0625 C5.57794956 109.52579913 1.75113258 111.42309092 -5.765625 111.7265625 C-8.28431166 111.86488613 -8.28431166 111.86488613 -11 114 C-14.20497244 113.83564244 -15.74461918 113.19326116 -18.3125 111.25 C-20.30929204 108.58761061 -20.36116409 107.25047681 -20 104 C-18.80375 103.71125 -17.6075 103.4225 -16.375 103.125 C-10.55413577 100.93446276 -8.5787335 96.3710899 -6 91 C-5.58492188 90.154375 -5.16984375 89.30875 -4.7421875 88.4375 C-1.91878233 82.11939052 -0.44020181 76.40193048 -2.8125 69.70703125 C-4.95432587 65.14821437 -7.63993323 60.99976012 -10.41992188 56.81494141 C-11.01643555 55.91654541 -11.01643555 55.91654541 -11.625 55 C-12.21958008 54.10547119 -12.21958008 54.10547119 -12.82617188 53.19287109 C-15.55420997 48.97964474 -17.3247571 45.05640855 -18.46484375 40.18359375 C-18.95715859 37.91725165 -18.95715859 37.91725165 -20.0390625 35.57421875 C-22.51350852 28.94551987 -21.65655926 21.67294333 -19.125 15.1875 C-16.1185932 9.31906186 -11.94490306 5.77954907 -6 3 C-2.8599999 2.23584068 -0.25869082 2.05255953 3 2 C2.01 1.34 1.02 0.68 0 0 Z " fill="#050505" transform="translate(333,204)"/>
<path d="M0 0 C0.66 1.32 1.32 2.64 2 4 C0.02 4.99 0.02 4.99 -2 6 C-1.67 7.32 -1.34 8.64 -1 10 C-1.99 10.495 -1.99 10.495 -3 11 C-3.268125 11.66 -3.53625 12.32 -3.8125 13 C-4.204375 13.66 -4.59625 14.32 -5 15 C-6.66666667 15.33333333 -8.33333333 15.66666667 -10 16 C-11.36020151 17.96758273 -11.36020151 17.96758273 -12 20 C-12.66 20 -13.32 20 -14 20 C-13.47676818 14.76768177 -12.13072776 10.24163116 -9 6 C-6.16302326 3.6912879 -3.18271578 1.79537813 0 0 Z " fill="#0C0C0C" transform="translate(326,208)"/>
<path d="M0 0 C1.91595968 -0.08133791 3.83291932 -0.13934367 5.75 -0.1875 C7.35101563 -0.23970703 7.35101563 -0.23970703 8.984375 -0.29296875 C12.34615665 0.03362921 13.71393754 0.5308306 16 3 C16 4.32 16 5.64 16 7 C9.35699843 9.41563694 9.35699843 9.41563694 5.640625 8.27734375 C4.09850856 7.55544696 2.56917027 6.80554683 1.0546875 6.02734375 C-1.26061731 4.86969135 -3.43697 4.33071355 -6 4 C-6 3.67 -6 3.34 -6 3 C-1.545 2.505 -1.545 2.505 3 2 C2.01 1.34 1.02 0.68 0 0 Z " fill="#7C7C7C" transform="translate(333,204)"/>
<path d="M0 0 C0.99 0 1.98 0 3 0 C4.42287993 4.6844164 3.50446363 8.68169912 2.375 13.3125 C2.19404785 14.06781006 2.0130957 14.82312012 1.82666016 15.60131836 C0.40910968 21.15209073 -1.35814935 25.49560577 -5 30 C-5.66 30 -6.32 30 -7 30 C-7.33 30.66 -7.66 31.32 -8 32 C-8 28.23312136 -7.76462683 27.08809695 -6 24 C-5.34 24 -4.68 24 -4 24 C-3.67 22.68 -3.34 21.36 -3 20 C-2.67 20 -2.34 20 -2 20 C-1.80587819 18.52168779 -1.61987869 17.04230684 -1.4375 15.5625 C-1.33308594 14.73878906 -1.22867187 13.91507812 -1.12109375 13.06640625 C-1.08113281 12.38449219 -1.04117187 11.70257813 -1 11 C-1.33 10.67 -1.66 10.34 -2 10 C-2.2632246 6.05163095 -2.08997373 3.39620731 0 0 Z " fill="#7E7E7E" transform="translate(297,267)"/>
<path d="M0 0 C0.33 0 0.66 0 1 0 C1.08564209 0.95890137 1.17128418 1.91780273 1.25952148 2.90576172 C1.57787485 6.45822089 1.90153205 10.01018015 2.22680664 13.56201172 C2.36693072 15.10029158 2.50560974 16.63870379 2.64282227 18.17724609 C2.84012539 20.38675617 3.04259467 22.59574056 3.24609375 24.8046875 C3.3065538 25.49432587 3.36701385 26.18396423 3.42930603 26.89450073 C3.74675614 30.56819039 3.74675614 30.56819039 5 34 C3.95890517 36.56269497 2.97389657 38.02610343 1 40 C0.17852762 35.00010408 -0.1358223 30.16822982 -0.09765625 25.09765625 C-0.0962413 24.3750914 -0.09482635 23.65252655 -0.09336853 22.9080658 C-0.08782225 20.62616635 -0.0752802 18.34436921 -0.0625 16.0625 C-0.05747804 14.50455872 -0.05291636 12.94661588 -0.04882812 11.38867188 C-0.0378705 7.59240919 -0.02064372 3.79622187 0 0 Z " fill="#292929" transform="translate(202,264)"/>
<path d="M0 0 C3.30608373 3.30608373 3.05621381 7.51170107 3.125 12 C3.08565158 15.410196 2.66988989 18.65055055 2 22 C1.01 21.34 0.02 20.68 -1 20 C-1.66 20.33 -2.32 20.66 -3 21 C-2.01 14.07 -1.02 7.14 0 0 Z " fill="#696969" transform="translate(300,245)"/>
<path d="M0 0 C3.85685027 3.21404189 5.00461251 6.11355233 6 11 C5.67 11.66 5.34 12.32 5 13 C3.0625 12.6875 3.0625 12.6875 1 12 C0.67 11.01 0.34 10.02 0 9 C-0.33 8.34 -0.66 7.68 -1 7 C-1.33 8.32 -1.66 9.64 -2 11 C-3.32789969 8.8128711 -4.04752686 7.52279544 -3.8125 4.9375 C-2.89199398 2.74244718 -1.78403777 1.55133719 0 0 Z " fill="#181818" transform="translate(273,278)"/>
<path d="M0 0 C0.77851297 2.74625048 1.11261738 5.14887802 1.0625 8 C1.05347656 8.66 1.04445312 9.32 1.03515625 10 C1.02355469 10.66 1.01195312 11.32 1 12 C1 13.32 1 14.64 1 16 C-0.32 16 -1.64 16 -3 16 C-4.24213914 11.72672888 -3.69146302 9.28458881 -2.0625 5.1875 C-1.68222656 4.21167969 -1.30195313 3.23585938 -0.91015625 2.23046875 C-0.60980469 1.49441406 -0.30945313 0.75835937 0 0 Z " fill="#414141" transform="translate(140,287)"/>
<path d="M0 0 C1.91595968 -0.08133791 3.83291932 -0.13934367 5.75 -0.1875 C7.35101563 -0.23970703 7.35101563 -0.23970703 8.984375 -0.29296875 C12.34615665 0.03362921 13.71393754 0.5308306 16 3 C16 4.32 16 5.64 16 7 C13.03 6.505 13.03 6.505 10 6 C9.67 4.68 9.34 3.36 9 2 C6.03 1.67 3.06 1.34 0 1 C0 0.67 0 0.34 0 0 Z " fill="#2D2D2D" transform="translate(333,204)"/>
<path d="M0 0 C1 2 1 2 0.36328125 4.3125 C0.01652344 5.199375 -0.33023437 6.08625 -0.6875 7 C-1.02136719 7.886875 -1.35523438 8.77375 -1.69921875 9.6875 C-3.19422125 12.34528222 -4.25848334 12.83862431 -7 14 C-7.33 14.66 -7.66 15.32 -8 16 C-8 12.23312136 -7.76462683 11.08809695 -6 8 C-5.34 8 -4.68 8 -4 8 C-3.896875 7.4225 -3.79375 6.845 -3.6875 6.25 C-2.90207202 3.67950842 -1.69495803 2.06342716 0 0 Z " fill="#696969" transform="translate(297,283)"/>
<path d="M0 0 C2 3 2 3 2 7 C2.66 7 3.32 7 4 7 C3.67 7.99 3.34 8.98 3 10 C1.68 9.67 0.36 9.34 -1 9 C-1 11.31 -1 13.62 -1 16 C-1.33 16 -1.66 16 -2 16 C-2.05402274 13.89611431 -2.09280256 11.79183286 -2.125 9.6875 C-2.14820313 8.51574219 -2.17140625 7.34398437 -2.1953125 6.13671875 C-2 3 -2 3 0 0 Z " fill="#444444" transform="translate(298,203)"/>
<path d="M0 0 C0.99 0 1.98 0 3 0 C3 4.29 3 8.58 3 13 C2.01 13 1.02 13 0 13 C0 8.71 0 4.42 0 0 Z " fill="#262626" transform="translate(208,279)"/>
<path d="M0 0 C3.40208828 3.40208828 3.05433827 7.77178592 3.0625 12.375 C3.041875 13.57125 3.02125 14.7675 3 16 C2.34 16 1.68 16 1 16 C0.22750855 10.59255982 -0.09752461 5.46137814 0 0 Z " fill="#AFAFAF" transform="translate(300,245)"/>
<path d="M0 0 C0.66 0.99 1.32 1.98 2 3 C1.3203125 5.69921875 1.3203125 5.69921875 0.125 8.6875 C-0.45894531 10.17830078 -0.45894531 10.17830078 -1.0546875 11.69921875 C-1.52261719 12.83810547 -1.52261719 12.83810547 -2 14 C-2.99 14 -3.98 14 -5 14 C-4.46515599 8.65155992 -2.53309233 4.64203897 0 0 Z " fill="#2A2A2A" transform="translate(317,214)"/>
<path d="M0 0 C0.33 0 0.66 0 1 0 C1.33 3.3 1.66 6.6 2 10 C0.68 9.67 -0.64 9.34 -2 9 C-2.33 9.66 -2.66 10.32 -3 11 C-3.66 11 -4.32 11 -5 11 C-4.67 8.36 -4.34 5.72 -4 3 C-3.67 3.99 -3.34 4.98 -3 6 C-2.34 5.67 -1.68 5.34 -1 5 C-0.34444881 2.47266765 -0.34444881 2.47266765 0 0 Z " fill="#2E2E2E" transform="translate(299,260)"/>
<path d="M0 0 C0.99 0.33 1.98 0.66 3 1 C3.3721042 2.32303717 3.70630173 3.65737935 4 5 C4.66 5.33 5.32 5.66 6 6 C6 6.66 6 7.32 6 8 C6.66 8.33 7.32 8.66 8 9 C6.02 9.66 4.04 10.32 2 11 C1.34 7.37 0.68 3.74 0 0 Z " fill="#454545" transform="translate(209,293)"/>
<path d="M0 0 C0.66 0 1.32 0 2 0 C3.17353189 3.52059568 3.20146402 6.306493 3 10 C2.34 10.66 1.68 11.32 1 12 C0 11 0 11 -0.09765625 8.49609375 C-0.08605469 7.48675781 -0.07445312 6.47742188 -0.0625 5.4375 C-0.05347656 4.42558594 -0.04445313 3.41367188 -0.03515625 2.37109375 C-0.02355469 1.58863281 -0.01195312 0.80617187 0 0 Z " fill="#818181" transform="translate(301,230)"/>
<path d="M0 0 C0.33 0 0.66 0 1 0 C1.22786458 2.01822917 1.45572917 4.03645833 1.68359375 6.0546875 C1.91292961 8.07404316 1.91292961 8.07404316 3 10 C1.95890517 12.56269497 0.97389657 14.02610343 -1 16 C-0.67 10.72 -0.34 5.44 0 0 Z " fill="#3B3B3B" transform="translate(204,288)"/>
<path d="M0 0 C0.99 0 1.98 0 3 0 C5.125 6.75 5.125 6.75 4 9 C2.68 8.67 1.36 8.34 0 8 C0 5.36 0 2.72 0 0 Z " fill="#535353" transform="translate(274,282)"/>
<path d="M0 0 C0.66 0.66 1.32 1.32 2 2 C-1.27185553 3.07310858 -3.42947592 2.89263102 -6.75 2.0625 C-7.54921875 1.86785156 -8.3484375 1.67320312 -9.171875 1.47265625 C-9.77515625 1.31667969 -10.3784375 1.16070312 -11 1 C-11 0.67 -11 0.34 -11 0 C-7.00904159 -0.83531688 -3.93289983 -1.20171939 0 0 Z " fill="#A1A1A1" transform="translate(338,207)"/>
<path d="M0 0 C0.66 1.32 1.32 2.64 2 4 C-0.64738916 5.4606285 -1.89448334 6 -5 6 C-4.75 4.125 -4.75 4.125 -4 2 C-1.9375 0.75 -1.9375 0.75 0 0 Z " fill="#353535" transform="translate(326,208)"/>
<path d="M0 0 C0.33 0.66 0.66 1.32 1 2 C-0.25 5.5625 -0.25 5.5625 -2 9 C-2.99 9.33 -3.98 9.66 -5 10 C-5.33 9.34 -5.66 8.68 -6 8 C-5.34 8 -4.68 8 -4 8 C-3.8453125 7.13375 -3.8453125 7.13375 -3.6875 6.25 C-2.90207202 3.67950842 -1.69495803 2.06342716 0 0 Z " fill="#3C3C3C" transform="translate(297,283)"/>
<path d="M0 0 C0.33 1.32 0.66 2.64 1 4 C-0.8125 4.6875 -0.8125 4.6875 -3 5 C-4.75 3.5625 -4.75 3.5625 -6 2 C-4.02 1.34 -2.04 0.68 0 0 Z " fill="#BEBEBE" transform="translate(349,210)"/>
<path d="M0 0 C2.67927341 4.01891012 2.15601248 6.24161923 2 11 C1.01 11 0.02 11 -1 11 C-0.67 7.37 -0.34 3.74 0 0 Z " fill="#2A2A2A" transform="translate(209,215)"/>
<path d="M0 0 C1.5625 1.1875 1.5625 1.1875 3 3 C2.6875 5.6875 2.6875 5.6875 2 8 C1.01 8 0.02 8 -1 8 C-0.67 5.36 -0.34 2.72 0 0 Z " fill="#343434" transform="translate(144,277)"/>
<path d="M0 0 C0.99 0 1.98 0 3 0 C3.33 1.65 3.66 3.3 4 5 C2.35 5.33 0.7 5.66 -1 6 C-1.33 5.34 -1.66 4.68 -2 4 C-1.0625 1.875 -1.0625 1.875 0 0 Z " fill="#616161" transform="translate(297,267)"/>
<path d="M0 0 C0.66 0.99 1.32 1.98 2 3 C-1 5 -1 5 -3.6875 4.625 C-4.450625 4.41875 -5.21375 4.2125 -6 4 C-5.01 3.67 -4.02 3.34 -3 3 C-3 2.34 -3 1.68 -3 1 C-2.01 0.67 -1.02 0.34 0 0 Z " fill="#2D2D2D" transform="translate(323,313)"/>
</svg>
